<svg width="480" height="100" fill="none" xmlns="http://www.w3.org/2000/svg"><path d="M447.985 100c-6.541 0-12.455-1.524-17.742-4.571-5.196-3.046-9.273-7.258-12.231-12.634-2.956-5.466-4.435-11.559-4.435-18.28 0-6.45 1.389-12.365 4.167-17.742 2.867-5.465 6.854-9.766 11.962-12.902 5.107-3.226 10.932-4.839 17.473-4.839 6.721 0 12.545 1.478 17.473 4.435 5.018 2.957 8.826 7.08 11.425 12.366 2.599 5.197 3.898 11.2 3.898 18.01 0 .807-.045 1.614-.135 2.42-.089.806-.135 1.254-.135 1.344h-51.343c.448 6.093 2.644 10.798 6.586 14.113 3.943 3.315 8.422 4.973 13.441 4.973 7.706 0 13.62-3.584 17.742-10.753l12.634 6.05c-2.958 5.465-7.079 9.855-12.366 13.17-5.197 3.227-11.335 4.84-18.414 4.84zm16.936-43.683c-.179-2.15-.896-4.346-2.15-6.586-1.255-2.24-3.226-4.122-5.915-5.645-2.598-1.613-5.869-2.42-9.811-2.42-4.391 0-8.199 1.344-11.425 4.032-3.136 2.688-5.286 6.228-6.452 10.62h35.753zM381.128 100c-7.617 0-13.934-1.748-18.952-5.243-4.928-3.584-8.422-8.064-10.483-13.44l13.171-5.646c1.524 3.674 3.719 6.452 6.586 8.333 2.957 1.882 6.183 2.823 9.678 2.823 3.674 0 6.676-.671 9.005-2.016 2.33-1.433 3.495-3.27 3.495-5.51 0-2.151-.941-3.898-2.823-5.243-1.882-1.433-4.973-2.688-9.274-3.763l-9.14-2.15c-5.018-1.166-9.363-3.316-13.037-6.451-3.584-3.227-5.376-7.393-5.376-12.501 0-6.183 2.553-11.066 7.661-14.65 5.107-3.674 11.379-5.511 18.816-5.511 6.183 0 11.649 1.3 16.399 3.898 4.838 2.598 8.333 6.362 10.483 11.29l-13.038 5.511c-1.254-2.778-3.181-4.84-5.779-6.183-2.599-1.344-5.421-2.016-8.467-2.016-2.958 0-5.556.672-7.796 2.016-2.241 1.254-3.36 2.957-3.36 5.108 0 1.882.761 3.404 2.285 4.57 1.612 1.164 4.121 2.15 7.526 2.956l9.947 2.42c6.72 1.702 11.738 4.3 15.053 7.795 3.315 3.405 4.974 7.527 4.974 12.366 0 3.942-1.21 7.526-3.63 10.753-2.329 3.225-5.6 5.78-9.811 7.66-4.123 1.882-8.826 2.824-14.113 2.824zm-70.731 0c-4.749 0-9.051-.942-12.903-2.823-3.764-1.971-6.765-4.66-9.006-8.065-2.15-3.494-3.225-7.437-3.225-11.828 0-6.989 2.598-12.5 7.795-16.532 5.287-4.033 11.962-6.048 20.027-6.048 7.079 0 13.127 1.21 18.145 3.629V55.51c0-4.033-1.613-7.348-4.839-9.947-3.136-2.688-6.944-4.032-11.425-4.032-6.809 0-12.275 2.778-16.397 8.333l-11.29-7.796c3.136-4.21 7.034-7.437 11.693-9.677 4.749-2.24 10.081-3.36 15.994-3.36 9.767 0 17.294 2.464 22.581 7.392 5.376 4.839 8.064 11.694 8.064 20.565v40.86H331.23V89.65h-.806c-2.151 3.046-4.884 5.556-8.2 7.527-3.314 1.881-7.258 2.823-11.827 2.823zm2.419-12.232c3.316 0 6.362-.806 9.14-2.419 2.867-1.703 5.108-3.898 6.72-6.586 1.702-2.778 2.554-5.735 2.554-8.871-4.749-2.599-9.812-3.898-15.189-3.898-4.927 0-8.78 1.075-11.558 3.226-2.778 2.15-4.166 4.884-4.166 8.198 0 3.047 1.209 5.557 3.628 7.528 2.509 1.881 5.466 2.822 8.871 2.822zM248.364 100c-4.839 0-9.185-1.03-13.037-3.092-3.764-2.06-6.586-4.659-8.468-7.795h-.807v8.737h-13.979V1.614h14.786V30.51l-.807 9.274h.807c1.882-3.046 4.704-5.6 8.468-7.66 3.852-2.062 8.198-3.092 13.037-3.092 5.735 0 11.021 1.523 15.86 4.57 4.929 3.046 8.827 7.302 11.694 12.768 2.957 5.376 4.435 11.425 4.435 18.145 0 6.72-1.478 12.77-4.435 18.145-2.867 5.376-6.765 9.633-11.694 12.769-4.839 3.047-10.125 4.57-15.86 4.57zm-2.554-13.575c3.495 0 6.721-.896 9.678-2.688 3.046-1.792 5.465-4.346 7.257-7.661 1.882-3.405 2.823-7.258 2.823-11.56 0-4.3-.941-8.11-2.823-11.424-1.792-3.405-4.211-6.004-7.257-7.796-2.957-1.792-6.183-2.688-9.678-2.688-3.495 0-6.765.896-9.812 2.688-2.956 1.792-5.376 4.346-7.257 7.661-1.793 3.316-2.689 7.169-2.689 11.56 0 4.39.896 8.243 2.689 11.559 1.881 3.315 4.301 5.869 7.257 7.661 3.047 1.792 6.317 2.688 9.812 2.688zM171.279 100c-6.542 0-12.455-1.524-17.742-4.571-5.198-3.046-9.275-7.258-12.231-12.634-2.957-5.466-4.435-11.559-4.435-18.28 0-6.45 1.388-12.365 4.166-17.742 2.867-5.465 6.855-9.766 11.962-12.902 5.108-3.226 10.932-4.839 17.473-4.839 6.72 0 12.545 1.478 17.473 4.435 5.018 2.957 8.827 7.08 11.424 12.366 2.599 5.197 3.898 11.2 3.898 18.01 0 .807-.044 1.614-.133 2.42-.091.806-.135 1.254-.135 1.344h-51.344c.448 6.093 2.643 10.798 6.586 14.113 3.943 3.315 8.423 4.973 13.441 4.973 7.706 0 13.62-3.584 17.741-10.753l12.635 6.05c-2.957 5.465-7.078 9.855-12.365 13.17-5.198 3.227-11.335 4.84-18.414 4.84zm16.935-43.683c-.18-2.15-.896-4.346-2.151-6.586-1.254-2.24-3.225-4.122-5.913-5.645-2.599-1.613-5.869-2.42-9.812-2.42-4.391 0-8.199 1.344-11.425 4.032-3.136 2.688-5.287 6.228-6.451 10.62h35.752zM95.837 31.183h13.978v9.946h.807c1.434-3.405 4.033-6.227 7.796-8.467 3.763-2.33 7.616-3.495 11.559-3.495 3.225 0 5.869.448 7.93 1.344v15.457c-3.047-1.523-6.452-2.285-10.215-2.285-4.839 0-8.916 1.882-12.232 5.645-3.225 3.674-4.838 8.199-4.838 13.575V97.85H95.837V31.183zm-21.1-11.291c-2.777 0-5.152-.94-7.124-2.822-1.882-1.972-2.822-4.346-2.822-7.124 0-2.778.94-5.107 2.822-6.989C69.585.986 71.96 0 74.737 0c2.778 0 5.107.986 6.99 2.957 1.97 1.882 2.956 4.211 2.956 6.99 0 2.777-.985 5.151-2.956 7.123-1.883 1.881-4.212 2.822-6.99 2.822zm-7.392 11.29h14.784V97.85H67.344V31.183zM0 1.614h58.467v14.381H15.053v27.688h39.113V57.93H15.053v39.92H0V1.614z" fill="#fff"/></svg>